# xmcd CD database file
#
# Track frame offsets:
#	150
#	17310
#	39477
#	63694
#	86606
#	109604
#	123909
#	139802
#	158750
#	177065
#	197126
#
# Disc length: 3153 seconds
#
# Revision: 0
# Processed by: cddbd v1.5.2PL0 Copyright (c) Steve Scherf et al.
# Submitted via: CDex 1.51
#
DISCID=880c4f0b
DTITLE=Aardvark - La Dance Du Village
DYEAR=2005
DGENRE=Blues
TTITLE0=Niets Of Niemand
TTITLE1=Ewk Joar Nen Kilo
TTITLE2=Oh Wijveken Bleit Nie
TTITLE3=Sparta Pils In Den Miami
TTITLE4=Interludium 0505
TTITLE5=Bundy Inside
TTITLE6=Michael Is Decomposing
TTITLE7=Iranian Friends
TTITLE8=A Chicken Can't Fly
TTITLE9=House On A Hill
TTITLE10=Fallen Star Tracer
EXTD=YEAR: 2005
EXTT0=
EXTT1=
EXTT2=
EXTT3=
EXTT4=
EXTT5=
EXTT6=
EXTT7=
EXTT8=
EXTT9=
EXTT10=
PLAYORDER=
